<svg width="140" height="38" viewBox="0 0 140 38" fill="none" xmlns="http://www.w3.org/2000/svg">
<g id="IMAGE" clip-path="url(#clip0_1_273)">
<path id="Vector" d="M22.3941 31.0904C22.2057 31.1632 22.006 31.2021 21.804 31.2056L19.571 31.2747H17.6503C16.074 33.0244 14.1924 34.4757 12.0966 35.5583C10.6028 36.2963 8.95052 36.66 7.28338 36.6177C6.25779 36.5908 5.24276 36.4042 4.27511 36.065C3.39406 35.7638 2.58052 35.2944 1.88007 34.6832C1.23633 34.1319 0.726097 33.4431 0.387508 32.668C0.0488328 31.869 -0.070938 30.9949 0.0404012 30.1347C0.11688 28.8504 0.571597 27.6169 1.34784 26.588C1.95791 25.8301 2.75528 25.2428 3.66189 24.8838C4.48529 24.5776 5.36538 24.452 6.24206 24.5153C6.92965 24.5547 7.60973 24.6785 8.26685 24.8838C8.67831 25.055 9.02323 25.3538 9.25032 25.7359C9.43364 26.0362 9.51101 26.3887 9.47016 26.7377C9.44319 26.8883 9.38632 27.0322 9.30287 27.1607C9.21944 27.2892 9.11111 27.3998 8.98421 27.4862C8.82624 27.5719 8.64922 27.6168 8.46933 27.6168C8.28944 27.6168 8.11241 27.5719 7.95445 27.4862C7.35344 27.2054 6.66915 27.1561 6.03379 27.348C5.48967 27.53 5.00833 27.8613 4.64536 28.3038C4.28976 28.7607 4.05505 29.2992 3.96272 29.8698C3.84704 30.4426 3.89105 31.036 4.08999 31.5856C4.31235 32.1604 4.71904 32.6461 5.24702 32.9674C5.9464 33.3755 6.75175 33.5679 7.56107 33.5201C9.3893 33.3973 11.1185 32.6487 12.4553 31.4014C11.7842 31.4014 11.3677 31.1941 11.2057 30.8947C11.1185 30.742 11.0726 30.5694 11.0726 30.3938C11.0726 30.2182 11.1185 30.0456 11.2057 29.8929C11.4441 29.4804 11.7723 29.1263 12.166 28.8565C12.5963 28.5464 13.1054 28.3629 13.6354 28.3268H14.4801C14.8387 28.3268 15.2437 28.3268 15.7065 28.3268C17.4494 26.3662 19.0648 24.297 20.5429 22.1317C22.209 19.7135 23.8288 17.2723 25.4602 14.7735C27.0916 12.2747 28.5842 9.81045 30.0883 7.39227C31.5924 4.97408 33.1082 2.78621 34.5313 0.897721C34.8565 0.459418 35.3358 0.15925 35.8734 0.0571148C36.338 -0.0500452 36.8247 -0.00563487 37.2619 0.183782C37.4586 0.276748 37.6334 0.409905 37.7749 0.574578C37.9165 0.739252 38.0216 0.931752 38.0834 1.13954C38.1478 1.39824 38.1531 1.668 38.0991 1.92904C38.0451 2.19008 37.9329 2.43575 37.771 2.64802C36.5561 4.52499 35.3643 6.58621 34.1726 8.84317C32.9809 11.1001 31.8586 13.3801 30.8751 15.6717C29.8916 17.9632 28.9313 20.1856 28.1908 22.3159C27.4959 24.166 26.92 26.0583 26.4668 27.9814C26.1246 29.2772 25.9687 30.6148 26.004 31.9541C26.085 32.9674 26.4553 33.4626 27.161 33.4626C27.4775 33.4509 27.7901 33.3888 28.0867 33.2783C28.4835 33.1405 28.8702 32.9751 29.2437 32.7832C29.6459 32.5599 30.0324 32.3099 30.4007 32.0347C30.7809 31.7664 31.137 31.4658 31.4652 31.1365L32.9577 29.628C33.3922 29.1625 33.8017 28.6742 34.1842 28.1656C34.2755 28.0172 34.4027 27.8941 34.5544 27.8075C34.7061 27.721 34.8772 27.6739 35.052 27.6704C35.4116 27.6432 35.7719 27.7149 36.0933 27.8777C36.3948 28.0146 36.6399 28.2504 36.7875 28.5456C36.8548 28.694 36.8754 28.8594 36.8465 29.0197C36.8176 29.1801 36.7405 29.3279 36.6255 29.4438L35.1908 31.1595C34.5891 31.885 33.8255 32.7026 32.8767 33.6238C32.2751 34.188 31.7197 34.6717 31.2338 35.0517C30.7719 35.4223 30.2716 35.7427 29.7412 36.0074C29.2538 36.2503 28.7364 36.4284 28.2024 36.5371C27.6035 36.6485 26.9951 36.7024 26.3858 36.6983C25.7634 36.7509 25.138 36.6355 24.576 36.3638C24.0139 36.0923 23.536 35.6747 23.1924 35.1553C22.5246 33.91 22.2466 32.4944 22.3941 31.0904ZM22.7643 28.1771C23.3016 25.8475 24.0769 23.5787 25.0784 21.4062C24.2338 22.742 23.4007 23.9856 22.6024 25.1141C21.804 26.2426 21.0404 27.2789 20.2883 28.2347C20.7858 28.2347 21.2486 28.1771 21.6767 28.1771H22.7643ZM37.5048 21.0377C37.5932 20.8699 37.7219 20.7265 37.8793 20.6201C38.0367 20.5136 38.218 20.4475 38.4073 20.4274C38.8532 20.3293 39.3152 20.3293 39.761 20.4274C40.1731 20.5142 40.5509 20.7183 40.8486 21.0147C40.9881 21.1495 41.0794 21.3261 41.1086 21.5173C41.1379 21.7086 41.1034 21.9041 41.0106 22.0741L40.6982 22.7074L40.9065 22.5462C41.6608 21.8474 42.5244 21.2756 43.4635 20.8535C44.0344 20.5898 44.6645 20.4787 45.2916 20.5311C45.7816 20.5921 46.2354 20.82 46.5759 21.1759C46.9358 21.5282 47.2296 21.9415 47.4437 22.3965C47.7581 23.1522 47.7581 24.0014 47.4437 24.7571C47.0741 25.7711 46.6213 26.7533 46.09 27.6935C45.6966 28.4765 45.2916 29.202 44.8635 29.8929C44.4354 30.5838 44.0189 31.2977 43.5908 32.0347C43.427 32.2615 43.3271 32.528 43.3015 32.8062C43.3015 32.9329 43.4057 32.9674 43.5677 32.9329C43.7615 32.8787 43.948 32.8014 44.123 32.7026C44.3241 32.5804 44.5173 32.4458 44.7015 32.2995C45.5227 31.67 46.2962 30.9811 47.0156 30.2383C47.67 29.5847 48.2844 28.8926 48.8553 28.1656C48.9479 28.0081 49.0794 27.8768 49.2373 27.7841C49.3954 27.6913 49.5745 27.6404 49.7577 27.6359C50.1062 27.6084 50.4554 27.6804 50.7644 27.8432C51.0546 27.9879 51.29 28.2221 51.4354 28.5111C51.5032 28.6557 51.5293 28.8162 51.5109 28.9748C51.4926 29.1333 51.4303 29.2837 51.3313 29.4092C51.1462 29.6165 50.9148 29.9274 50.6139 30.3304C50.3131 30.7335 49.966 31.1711 49.5726 31.6317C49.1792 32.0923 48.7511 32.5644 48.2652 33.0595C47.7792 33.5547 47.3048 34.0153 46.8073 34.4414C46.0466 35.1549 45.1755 35.7421 44.2272 36.1801C43.5933 36.4753 42.9021 36.6285 42.2024 36.6292C41.6738 36.6348 41.1594 36.46 40.7445 36.1341C40.3576 35.8227 40.0453 35.4294 39.8305 34.9826C39.4953 34.259 39.4497 33.4354 39.7032 32.6795C40.0399 31.6416 40.4778 30.6388 41.0106 29.6856C41.1495 29.4092 41.323 29.0753 41.5429 28.6838C41.7627 28.2923 41.971 27.9007 42.2024 27.5323C42.4338 27.1638 42.642 26.7377 42.8387 26.3808C43.004 26.0622 43.1894 25.7546 43.3941 25.4595C43.6139 25.068 43.6949 24.8147 43.6602 24.688C43.6255 24.5614 43.5098 24.5268 43.3247 24.5614C43.0924 24.6105 42.867 24.6879 42.6536 24.7917C42.4106 24.9183 42.1792 25.0565 41.9594 25.1947C41.3924 25.5862 40.8024 26.0123 40.2123 26.4844C39.6328 26.9396 39.0804 27.4279 38.5577 27.9468C38.1991 28.7874 37.8404 29.6395 37.4701 30.4917L36.4288 32.8753C36.1048 33.6123 35.8387 34.2456 35.6073 34.7753C35.3759 35.305 35.2024 35.6735 35.0982 35.9268C34.9891 36.1606 34.8283 36.3669 34.628 36.5303C34.4277 36.6938 34.193 36.8103 33.9412 36.8711C33.4482 37.0272 32.9186 37.0272 32.4255 36.8711C31.9591 36.7243 31.5688 36.402 31.3379 35.9729C31.2139 35.708 31.1584 35.4165 31.1766 35.1249C31.1948 34.8332 31.2861 34.5508 31.442 34.3032C31.7544 33.6007 32.1941 32.668 32.7379 31.528C33.2817 30.388 33.8949 29.225 34.4503 27.9238L36.1511 24.2389C36.6371 22.8917 37.1115 21.8783 37.5048 21.0262V21.0377ZM57.7644 19.7135L53.3445 27.4286C52.9627 28.1311 52.5809 28.8104 52.1875 29.4438C51.8451 30.0069 51.5398 30.5916 51.2734 31.1941C51.0786 31.6296 50.92 32.0802 50.7991 32.5414C50.7065 32.9098 50.7528 33.1632 50.9379 33.3014C51.0384 33.3949 51.164 33.4576 51.2994 33.4821C51.4347 33.5066 51.5744 33.4918 51.7015 33.4395C52.0823 33.331 52.442 33.1596 52.766 32.9329C53.1362 32.6911 53.5181 32.4032 53.923 32.0923C54.328 31.7814 54.6635 31.4589 54.9875 31.1365L56.4801 29.628C56.9145 29.1625 57.3239 28.6742 57.7065 28.1656C57.7978 28.0172 57.9251 27.8941 58.0767 27.8075C58.2284 27.721 58.3996 27.6739 58.5743 27.6704C58.9339 27.6432 59.2942 27.7149 59.6156 27.8777C59.9171 28.0146 60.1622 28.2504 60.3098 28.5456C60.3771 28.694 60.3977 28.8594 60.3688 29.0197C60.3399 29.1801 60.2628 29.3279 60.1478 29.4438C59.7891 29.9044 59.3148 30.4801 58.7131 31.1941C58.1115 31.908 57.3478 32.7026 56.3991 33.6238C55.7974 34.188 55.242 34.6717 54.7561 35.0517C54.2942 35.4223 53.7939 35.7427 53.2635 36.0074C52.7761 36.2503 52.2588 36.4284 51.7247 36.5371C51.145 36.647 50.5561 36.701 49.966 36.6983C48.1495 36.6983 47.0966 35.9614 46.7958 34.4989C46.4949 33.0365 47.0734 31.0444 48.5313 28.6492C48.7048 28.3268 48.971 27.8547 49.3296 27.2214C49.6883 26.588 50.0933 25.8626 50.5792 25.045L52.0949 22.4541C52.6272 21.5329 53.1362 20.6347 53.6338 19.748C53.3343 19.7851 53.033 19.8043 52.7313 19.8056H51.771C51.0305 19.8056 50.5445 19.6559 50.3363 19.3565C50.2325 19.2055 50.1722 19.029 50.162 18.8464C50.1518 18.6636 50.1921 18.4817 50.2784 18.3201C50.5016 17.8906 50.8324 17.5257 51.2387 17.2608C51.6936 16.9478 52.2257 16.7647 52.7776 16.7311H53.9346C54.3974 16.7311 54.9065 16.7311 55.4734 16.7311L56.6305 14.8195C56.8953 14.3415 57.3343 13.983 57.8569 13.8177C58.3088 13.6763 58.7934 13.6763 59.2453 13.8177C59.6336 13.9305 59.9644 14.1856 60.171 14.5317C60.2621 14.7127 60.3038 14.9145 60.2916 15.1167C60.2794 15.3188 60.2139 15.5142 60.1015 15.6832L59.5693 16.5814H61.0503C61.4355 16.6108 61.8223 16.6108 62.2073 16.5814C62.7396 16.5814 63.052 16.7426 63.1677 17.042C63.2183 17.2079 63.2342 17.3825 63.2143 17.5548C63.1944 17.7271 63.1392 17.8936 63.052 18.0438C62.8497 18.4529 62.5617 18.8141 62.2073 19.1032C61.8561 19.4228 61.399 19.6032 60.923 19.6098L57.7644 19.7135ZM74.5875 28.1771C74.6916 28.0278 74.8297 27.905 74.9906 27.8189C75.1514 27.7329 75.3305 27.6859 75.5131 27.682C75.8726 27.6571 76.2322 27.7286 76.5544 27.8892C76.851 28.0333 77.094 28.2672 77.2486 28.5571C77.3145 28.7059 77.3342 28.8708 77.3054 29.0307C77.2764 29.1908 77.2004 29.3385 77.0867 29.4553C76.9015 29.6626 76.6701 29.9735 76.3693 30.3765C76.0685 30.7795 75.7098 31.2171 75.3048 31.6777L74.0553 33.0941C73.6032 33.5808 73.1242 34.0421 72.6206 34.4759C71.8656 35.1859 71.0026 35.7727 70.0635 36.2147C69.4507 36.5087 68.7768 36.6546 68.0966 36.6408C67.5734 36.6234 67.07 36.4375 66.6619 36.1111C66.267 35.783 65.9272 35.3942 65.6553 34.9595L63.8156 36.1111C62.9002 36.5588 61.8832 36.7612 60.8652 36.6983C60.0227 36.717 59.1922 36.4973 58.4701 36.065C57.7907 35.6372 57.2674 35.0034 56.9776 34.2571C56.6423 33.3725 56.5311 32.4194 56.6536 31.482C56.8152 30.2395 57.2244 29.0416 57.8569 27.9583C58.4915 26.742 59.3068 25.6279 60.2751 24.6535C61.1389 23.7872 62.093 23.0152 63.1214 22.3504C63.9932 21.7902 64.9344 21.3452 65.9214 21.0262C66.667 20.7695 67.447 20.6259 68.2354 20.6001C68.6288 20.5959 69.0201 20.6582 69.3924 20.7844C69.7149 20.9038 70.025 21.0542 70.3181 21.2335C70.6091 21.4115 70.8771 21.6242 71.1164 21.8668C71.3446 21.4394 71.7239 21.1111 72.1809 20.9456C72.6443 20.7501 73.1498 20.6748 73.6503 20.7268C74.0423 20.76 74.4066 20.9412 74.6685 21.2335C74.8883 21.5214 74.8652 21.9014 74.5875 22.385L73.523 24.4808C73.0949 25.3098 72.6553 26.162 72.1925 27.0256L70.885 29.4553C70.5852 30.0165 70.257 30.5624 69.9015 31.0904C69.7315 31.3285 69.646 31.6162 69.6586 31.908C69.6586 32.0692 69.8668 32.1383 70.1098 32.1268C70.4136 32.0897 70.7057 31.9876 70.966 31.8274C71.3209 31.6303 71.6445 31.3819 71.9263 31.0904C72.528 30.4571 73.0139 29.9389 73.3842 29.582C73.825 29.1447 74.2277 28.6709 74.5875 28.1656V28.1771ZM66.766 29.6511C67.2707 29.0285 67.7053 28.3527 68.0619 27.6359C68.3677 27.0256 68.6193 26.3898 68.8139 25.7359C68.966 25.2323 69.0286 24.7063 68.9991 24.1814C68.9957 23.9926 68.9505 23.807 68.8663 23.6377C68.7823 23.4685 68.6617 23.3199 68.5131 23.2026C68.3549 23.0975 68.1764 23.027 67.9891 22.9952C67.8017 22.9634 67.6097 22.9713 67.4255 23.0183C66.9145 23.1347 66.4285 23.3414 65.9908 23.6286C65.4182 23.9978 64.8834 24.422 64.3941 24.8953C63.8139 25.4609 63.2727 26.0649 62.7743 26.7032C62.2727 27.3595 61.8276 28.0567 61.4437 28.7874C61.118 29.3834 60.8581 30.0127 60.6685 30.6644C60.5185 31.1643 60.4636 31.6875 60.5065 32.2074C60.5193 32.3966 60.5712 32.5811 60.6588 32.7495C60.7463 32.9179 60.8678 33.0666 61.0156 33.1862C61.1632 33.2948 61.3331 33.3696 61.513 33.4055C61.693 33.4413 61.8787 33.4371 62.0569 33.3935C62.5743 33.2925 63.0686 33.0973 63.5148 32.8177C64.1016 32.454 64.6449 32.0251 65.1346 31.5395C65.7315 30.9574 66.2773 30.3256 66.766 29.6511ZM74.5875 28.1656C75.4253 27.2041 76.1984 26.1886 76.9015 25.1256C77.7115 23.905 78.4635 22.8226 79.1346 21.7632C78.6847 21.1873 78.3508 20.5305 78.1511 19.8286C77.9193 19.0821 77.7946 18.3068 77.7809 17.5256C77.7576 16.7817 77.8554 16.039 78.0701 15.3262C78.2761 14.6686 78.68 14.0897 79.2272 13.668C79.8515 13.1264 80.6346 12.7992 81.4602 12.7353C82.108 12.7059 82.746 12.9013 83.2652 13.288C83.7738 13.7299 84.1334 14.3169 84.2949 14.9692C84.5281 15.6748 84.5759 16.428 84.4338 17.1571C84.3308 17.7087 84.1517 18.2435 83.9015 18.7462C83.6123 19.3565 83.2767 20.0014 82.8949 20.7153C83.3675 20.8194 83.8571 20.8194 84.3296 20.7153C84.8046 20.6007 85.3027 20.6248 85.7644 20.7844C86.1228 20.9172 86.4359 21.1488 86.6668 21.4523C86.8784 21.7129 86.993 22.0384 86.9908 22.3735C86.9947 22.5262 86.9681 22.6781 86.9126 22.8204C86.8569 22.9627 86.7734 23.0927 86.6668 23.2026C86.528 23.3407 86.2387 23.6632 85.8222 24.1468C85.4057 24.6304 84.9081 25.2408 84.3528 25.9201C83.7974 26.5995 83.1958 27.348 82.6751 28.1195C82.1512 28.835 81.6646 29.5768 81.2172 30.342C80.8538 30.9398 80.5515 31.5725 80.3148 32.2304C80.1181 32.7717 80.1412 33.1401 80.3842 33.3129C80.6206 33.4888 80.9043 33.5906 81.1991 33.6049C81.4939 33.6193 81.7863 33.5457 82.0387 33.3935C82.8392 33.0629 83.5904 32.6251 84.2718 32.0923C85.0895 31.4959 85.8628 30.8417 86.5858 30.1347C87.2272 29.5276 87.83 28.8815 88.3908 28.2001C88.5092 28.067 88.653 27.9587 88.8139 27.8815C88.9749 27.8045 89.1496 27.76 89.328 27.7511C89.6735 27.7327 90.0183 27.796 90.3346 27.9353C90.6233 28.0713 90.859 28.2978 91.0057 28.5801C91.0715 28.7289 91.0912 28.8938 91.0624 29.0538C91.0334 29.2138 90.9574 29.3616 90.8437 29.4783C90.1381 30.4052 89.3647 31.279 88.5296 32.0923C87.5525 33.1096 86.4662 34.017 85.29 34.7983C84.1745 35.5594 82.9441 36.1386 81.6453 36.5141C81.0754 36.6965 80.4744 36.7629 79.8781 36.7095C79.2818 36.6561 78.7023 36.4839 78.1743 36.2032C77.7448 36.0118 77.3751 35.7086 77.1042 35.3256C76.8334 34.9425 76.6714 34.4939 76.6354 34.0268C76.5409 32.9322 76.7238 31.8316 77.1677 30.8256C77.6702 29.5942 78.3314 28.4329 79.1346 27.3711C79.9255 26.2676 80.8547 25.2692 81.8999 24.4001C82.0819 24.2666 82.2353 24.0982 82.3511 23.905C82.3511 23.8129 82.004 23.6286 81.2635 23.3408C80.3726 24.7226 79.5164 25.9892 78.6834 27.1523C77.8503 28.3153 77.2834 29.0983 77.0057 29.4553C76.8937 29.6148 76.7472 29.7472 76.577 29.8428C76.4068 29.9385 76.2173 29.9949 76.0222 30.008C75.6765 30.0384 75.3305 29.9533 75.0387 29.7662C74.7616 29.6012 74.5463 29.3504 74.4255 29.0523C74.3666 28.9042 74.3505 28.7426 74.3791 28.5859C74.4077 28.4292 74.4799 28.2835 74.5875 28.1656ZM81.4024 15.4068C81.2702 15.4027 81.1391 15.4321 81.0217 15.4927C80.9043 15.5532 80.8043 15.6425 80.7313 15.7523C80.5602 16.0243 80.4534 16.3314 80.4189 16.6504C80.3605 17.0321 80.3605 17.4204 80.4189 17.802C80.488 18.2308 80.6329 18.6441 80.847 19.0226C81.0553 18.5965 81.252 18.1704 81.4255 17.7444C81.5888 17.3733 81.7166 16.9877 81.8073 16.5929C81.8776 16.3053 81.8776 16.0053 81.8073 15.7177C81.7808 15.6303 81.7276 15.5534 81.6549 15.4977C81.5824 15.4419 81.494 15.4102 81.4024 15.4068ZM97.2999 19.702L92.8801 27.4286C92.4867 28.1311 92.1049 28.8104 91.723 29.4438C91.3885 30.0094 91.0872 30.5938 90.8206 31.1941C90.6206 31.6275 90.4619 32.0786 90.3462 32.5414C90.2536 32.9098 90.3462 33.1632 90.4734 33.3014C90.5765 33.3946 90.7039 33.457 90.841 33.4816C90.9783 33.506 91.1195 33.4914 91.2486 33.4395C91.6294 33.331 91.9891 33.1596 92.3131 32.9329C92.6834 32.6911 93.0652 32.4032 93.4701 32.0923C93.8751 31.7814 94.2106 31.4589 94.5346 31.1365C95.171 30.5032 95.6916 29.985 96.0156 29.628C96.4376 29.1641 96.8316 28.6757 97.1958 28.1656C97.2904 28.0047 97.4255 27.8713 97.5879 27.7785C97.7502 27.6855 97.9342 27.6364 98.1214 27.6359C98.4809 27.611 98.8405 27.6825 99.1627 27.8432C99.4593 27.9872 99.7022 28.2211 99.8569 28.5111C99.9228 28.6598 99.9424 28.8247 99.9136 28.9847C99.8847 29.1447 99.8087 29.2925 99.6949 29.4092C99.3363 29.8698 98.8619 30.4456 98.2602 31.1595C97.6586 31.8735 96.8949 32.668 95.9462 33.5892C95.3445 34.1535 94.7891 34.6371 94.2916 35.0171C93.8319 35.385 93.3357 35.7053 92.8106 35.9729C92.3192 36.2158 91.798 36.3939 91.2602 36.5026C90.6807 36.613 90.0916 36.667 89.5015 36.6638C87.6966 36.6638 86.6437 35.9268 86.3429 34.4644C86.042 33.002 86.6206 31.0098 88.0668 28.6147C88.252 28.2923 88.5181 27.8201 88.8652 27.1868L90.1148 25.0104C90.6007 24.2044 91.0982 23.3408 91.6305 22.4195C92.1627 21.4983 92.6834 20.6001 93.1809 19.7135C92.8816 19.7506 92.5802 19.7698 92.2784 19.7711H91.3181C90.566 19.7711 90.0916 19.6214 89.8834 19.322C89.7859 19.1665 89.7342 18.987 89.7342 18.8038C89.7342 18.6206 89.7859 18.4411 89.8834 18.2856C90.103 17.8537 90.4346 17.4879 90.8437 17.2262C91.2985 16.9132 91.8306 16.7301 92.3825 16.6965H93.5396C94.0024 16.6965 94.5115 16.6965 95.0784 16.6965L96.2354 14.785C96.497 14.3345 96.9114 13.9916 97.404 13.8177C97.856 13.6763 98.3405 13.6763 98.7925 13.8177C99.1772 13.9374 99.5058 14.1908 99.7181 14.5317C99.8076 14.7137 99.8473 14.916 99.8331 15.1182C99.8188 15.3204 99.7513 15.5153 99.6371 15.6832L99.1049 16.5814H100.597C100.983 16.6108 101.369 16.6108 101.754 16.5814C102.287 16.5814 102.599 16.7426 102.703 17.042C102.756 17.2071 102.774 17.3813 102.757 17.5537C102.739 17.7262 102.685 17.893 102.599 18.0438C102.393 18.4505 102.106 18.811 101.754 19.1032C101.389 19.4183 100.919 19.5867 100.435 19.5753L97.2999 19.702ZM106.14 28.1656C106.231 28.0172 106.358 27.8941 106.51 27.8075C106.661 27.721 106.833 27.6739 107.007 27.6704C107.367 27.6432 107.727 27.7149 108.049 27.8777C108.35 28.0146 108.595 28.2504 108.743 28.5456C108.81 28.694 108.831 28.8594 108.802 29.0197C108.773 29.1801 108.696 29.3279 108.581 29.4438C108.222 29.9044 107.759 30.4801 107.169 31.1941C106.445 32.0468 105.672 32.858 104.855 33.6238C104.254 34.188 103.698 34.6717 103.212 35.0517C102.75 35.4223 102.25 35.7427 101.72 36.0074C101.232 36.2503 100.715 36.4284 100.181 36.5371C99.6012 36.647 99.0123 36.701 98.4222 36.6983C96.6057 36.6983 95.5528 35.9614 95.252 34.4989C94.9511 33.0365 95.5296 31.0444 96.9875 28.6492C97.2999 28.1195 97.6354 27.4977 97.9941 26.8759C98.3528 26.2541 98.7115 25.5747 99.0817 24.9414L100.146 23.145C100.482 22.5808 100.783 22.0971 101.026 21.7056C101.297 21.2385 101.735 20.8895 102.252 20.7268C102.692 20.5882 103.165 20.5882 103.606 20.7268C103.991 20.8519 104.321 21.1037 104.543 21.4408C104.636 21.6236 104.675 21.8293 104.655 22.0334C104.634 22.2375 104.555 22.4315 104.427 22.5923C104.045 23.2717 103.594 24.0547 103.097 24.9529L101.824 27.4286C101.442 28.1311 101.06 28.8104 100.667 29.4438C100.324 30.0069 100.019 30.5916 99.7528 31.1941C99.5579 31.6296 99.3993 32.0802 99.2784 32.5414C99.1858 32.9098 99.2321 33.1632 99.4172 33.3014C99.5178 33.3949 99.6433 33.4576 99.7787 33.4821C99.9141 33.5066 100.054 33.4918 100.181 33.4395C100.591 33.3329 100.982 33.1618 101.338 32.9329C101.738 32.6725 102.124 32.3919 102.495 32.0923C102.877 31.7698 103.235 31.4589 103.559 31.1365L104.994 29.628C105.401 29.1605 105.783 28.6724 106.14 28.1656ZM108.315 16.3626C108.12 16.6947 107.882 17.0004 107.609 17.2723C107.392 17.4946 107.164 17.7059 106.926 17.9056C106.48 18.1775 105.991 18.3722 105.48 18.4814C105.073 18.5896 104.646 18.6092 104.23 18.5389C104.08 18.5179 103.938 18.4578 103.818 18.3648C103.698 18.2719 103.605 18.1493 103.548 18.0092C103.421 17.7329 103.548 17.3414 103.837 16.8577C103.981 16.5772 104.139 16.3043 104.311 16.0401C104.531 15.7062 104.716 15.3953 104.902 15.1074C105.029 14.9053 105.198 14.7323 105.398 14.5993C105.597 14.4664 105.822 14.3767 106.059 14.3359C106.521 14.2514 106.997 14.279 107.447 14.4165C107.844 14.5436 108.181 14.8095 108.396 15.165C108.494 15.3527 108.539 15.5639 108.524 15.7751C108.51 15.9864 108.438 16.1896 108.315 16.3626ZM106.568 27.1638C107.199 26.0347 107.977 24.9932 108.882 24.0662C109.741 23.2193 110.706 22.4841 111.751 21.8783C112.668 21.3373 113.682 20.9776 114.736 20.8189C115.674 20.6786 116.632 20.7695 117.525 21.0838C117.853 21.1804 118.148 21.3644 118.379 21.6161C118.609 21.8678 118.766 22.1776 118.832 22.5117C118.91 23.2054 118.807 23.9075 118.531 24.5498C118.257 25.2967 117.866 25.996 117.374 26.6226C116.942 27.1702 116.457 27.6754 115.928 28.1311C115.612 28.4162 115.197 28.5689 114.771 28.5571C114.391 28.5305 114.028 28.39 113.73 28.1541C113.463 27.9412 113.263 27.6578 113.151 27.3365C113.096 27.1994 113.086 27.0482 113.124 26.9052C113.161 26.7621 113.244 26.6348 113.359 26.542L114.262 25.6438C114.59 25.3195 114.895 24.9731 115.176 24.6074C115.375 24.3612 115.518 24.0742 115.592 23.7668C115.592 23.5365 115.477 23.4214 115.118 23.4214C114.682 23.4435 114.259 23.5784 113.892 23.8129C113.366 24.1347 112.884 24.5216 112.457 24.9644C111.917 25.4819 111.418 26.0401 110.964 26.6341C110.451 27.2839 109.991 27.9731 109.587 28.6953C109.1 29.4518 108.865 30.3427 108.916 31.2401C108.946 31.5749 109.044 31.9001 109.205 32.1953C109.366 32.4906 109.587 32.7495 109.854 32.9559C110.461 33.3329 111.181 33.4877 111.89 33.3935C112.954 33.2738 113.973 32.9027 114.864 32.3111C115.323 32.0355 115.767 31.7356 116.194 31.4129C116.657 31.0559 117.097 30.6874 117.525 30.2614C117.953 29.8353 118.346 29.4898 118.682 29.1098C119.003 28.7834 119.305 28.4372 119.584 28.0735C119.676 27.9274 119.801 27.8059 119.95 27.7195C120.099 27.6331 120.268 27.5847 120.441 27.5783C120.778 27.5559 121.117 27.6193 121.424 27.7626C121.718 27.8961 121.956 28.1285 122.095 28.4189C122.164 28.5699 122.19 28.7369 122.169 28.9015C122.149 29.0662 122.083 29.222 121.979 29.3517C121.719 29.7284 121.437 30.0899 121.135 30.4341C120.776 30.8371 120.371 31.2747 119.908 31.7353C119.445 32.1959 118.96 32.645 118.45 33.1056C117.941 33.5662 117.409 33.9923 116.877 34.3838C115.937 35.1429 114.862 35.7174 113.707 36.0765C112.716 36.3751 111.687 36.5264 110.652 36.5256C109.777 36.5263 108.909 36.3622 108.095 36.042C107.452 35.8136 106.885 35.4155 106.452 34.8904C106.018 34.3574 105.717 33.7302 105.573 33.0595C105.426 32.4141 105.375 31.7506 105.422 31.0904C105.469 30.3919 105.594 29.7007 105.792 29.0292C105.976 28.3793 106.237 27.7531 106.568 27.1638ZM136.465 28.1656C136.569 28.0162 136.707 27.8935 136.868 27.8074C137.029 27.7213 137.208 27.6744 137.391 27.6704C137.751 27.6444 138.111 27.716 138.432 27.8777C138.733 28.0146 138.978 28.2504 139.126 28.5456C139.192 28.6944 139.212 28.8593 139.183 29.0192C139.154 29.1793 139.078 29.327 138.964 29.4438C138.791 29.6511 138.548 29.962 138.247 30.365C137.946 30.768 137.588 31.2056 137.183 31.6662C136.778 32.1268 136.338 32.5989 135.875 33.0941C135.423 33.5808 134.944 34.0421 134.441 34.4759C133.692 35.184 132.837 35.7707 131.907 36.2147C131.293 36.5087 130.62 36.6546 129.94 36.6408C129.417 36.6234 128.913 36.4375 128.505 36.1111C128.11 35.783 127.77 35.3942 127.498 34.9595L125.659 36.1111C124.743 36.5588 123.726 36.7612 122.708 36.6983C121.866 36.717 121.035 36.4973 120.313 36.065C119.636 35.6342 119.113 35.0013 118.821 34.2571C118.49 33.3716 118.382 32.4185 118.508 31.482C118.649 30.2416 119.044 29.0427 119.665 27.9583C120.304 26.7415 121.123 25.6274 122.095 24.6535C122.954 23.7819 123.908 23.0093 124.941 22.3504C125.808 21.7884 126.745 21.3431 127.73 21.0262C128.475 20.7696 129.255 20.6261 130.044 20.6001C130.437 20.5943 130.828 20.6566 131.201 20.7844C131.526 20.9061 131.84 21.0564 132.138 21.2335C132.47 21.4135 132.78 21.6297 133.064 21.8783C133.289 21.4487 133.669 21.1197 134.128 20.9571C134.569 20.7707 135.05 20.6956 135.528 20.7383C135.92 20.7692 136.286 20.9509 136.546 21.245C136.778 21.5329 136.743 21.9129 136.465 22.3965C136.188 22.8801 135.829 23.6632 135.401 24.4923C134.973 25.3214 134.533 26.1735 134.07 27.0371C133.607 27.9008 133.179 28.7068 132.763 29.4668C132.469 30.0423 132.14 30.5998 131.779 31.1365C131.571 31.528 131.49 31.7929 131.548 31.9541C131.606 32.1153 131.745 32.1844 131.999 32.1729C132.299 32.1357 132.587 32.0334 132.844 31.8735C133.199 31.6763 133.522 31.428 133.804 31.1365C134.406 30.5032 134.892 29.985 135.262 29.628C135.709 29.1792 136.111 28.6895 136.465 28.1656ZM128.644 29.6511C129.603 28.4912 130.318 27.1523 130.75 25.7129C130.9 25.213 130.962 24.691 130.935 24.1698C130.93 23.9825 130.886 23.7981 130.804 23.6293C130.722 23.4605 130.605 23.311 130.46 23.1911C130.293 23.0775 130.103 23.0022 129.903 22.9703C129.702 22.9385 129.498 22.951 129.303 23.0068C128.793 23.1253 128.307 23.3319 127.869 23.6171C127.296 23.9863 126.761 24.4105 126.272 24.8838C125.695 25.4523 125.154 26.0561 124.652 26.6917C124.155 27.3545 123.709 28.0552 123.321 28.7874C122.995 29.3834 122.736 30.0127 122.546 30.6644C122.399 31.1648 122.348 31.6882 122.396 32.2074C122.406 32.3959 122.456 32.58 122.542 32.7485C122.627 32.917 122.748 33.066 122.893 33.1862C123.041 33.2933 123.212 33.3673 123.391 33.4031C123.571 33.4388 123.757 33.4356 123.935 33.3935C124.452 33.2925 124.946 33.0973 125.393 32.8177C125.981 32.4514 126.528 32.0229 127.024 31.5395C127.614 30.9541 128.156 30.3226 128.644 29.6511Z" fill="#141414"/>
</g>
<defs>
<clipPath id="clip0_1_273">
<rect width="140" height="38" fill="white"/>
</clipPath>
</defs>
</svg>
