<svg width="154" height="38" viewBox="0 0 154 38" fill="none" xmlns="http://www.w3.org/2000/svg">
<g id="IMAGE" clip-path="url(#clip0_1_271)">
<path id="Vector" d="M106.531 27.3723C108.087 27.3926 109.631 27.0922 111.065 26.4897C112.478 25.8585 113.834 25.1081 115.118 24.2465L121.463 32.5574C120.459 33.4879 119.321 34.2646 118.087 34.8619C116.824 35.4631 115.503 35.9354 114.145 36.2716C112.712 36.6299 111.254 36.8799 109.784 37.0194C108.28 37.1542 106.753 37.2278 105.164 37.2278C103.559 37.2265 101.955 37.1446 100.359 36.9826C98.7818 36.8232 97.291 36.6149 95.8866 36.3329C94.5758 36.0825 93.2801 35.7592 92.0058 35.3645C90.9641 35.0376 89.9505 34.6277 88.975 34.1387L100.42 11.2161H91.8826V0.588401H118.087L105.582 27.3723H106.531ZM141.323 14.8813C140.985 14.0896 140.481 13.379 139.844 12.7974C139.198 12.1916 138.441 11.7133 137.614 11.3878C136.762 11.0321 135.846 10.8489 134.922 10.8489C133.998 10.8489 133.083 11.0321 132.231 11.3878C130.59 12.0314 129.265 13.284 128.535 14.8813C128.161 15.6799 127.968 16.5501 127.968 17.431C127.968 18.3118 128.161 19.182 128.535 19.9807C129.265 21.578 130.59 22.8305 132.231 23.4742C133.083 23.8299 133.998 24.0131 134.922 24.0131C135.846 24.0131 136.762 23.8299 137.614 23.4742C138.441 23.1486 139.198 22.6703 139.844 22.0645C140.481 21.483 140.985 20.7724 141.323 19.9807C141.68 19.1776 141.865 18.3092 141.865 17.431C141.865 16.5528 141.68 15.6843 141.323 14.8813ZM151.795 24.3568C150.851 26.4495 149.513 28.3429 147.852 29.9342C146.155 31.5497 144.159 32.8234 141.976 33.6852C137.354 35.4861 132.219 35.4861 127.598 33.6852C123.244 31.9565 119.737 28.6114 117.816 24.3568C116.858 22.2068 116.363 19.881 116.363 17.529C116.363 15.1771 116.858 12.8512 117.816 10.7013C118.758 8.61112 120.097 6.72149 121.759 5.13614C123.46 3.54264 125.439 2.27148 127.598 1.38518C132.211 -0.461725 137.363 -0.461725 141.976 1.38518C144.145 2.26662 146.134 3.53816 147.84 5.13614C149.506 6.71823 150.845 8.60864 151.782 10.7013C152.741 12.8512 153.236 15.1771 153.236 17.529C153.236 19.881 152.741 22.2068 151.782 24.3568H151.795ZM80.9794 11.2161V34.5065H69.8298V11.2161H62.9552V0.588401H87.7923V11.2161H80.9794ZM50.0931 11.3878C49.8468 11.1366 49.5514 10.9385 49.2251 10.8057C48.8987 10.6728 48.5483 10.6081 48.1958 10.6155H46.471V15.8129H48.1958C48.5483 15.8203 48.8987 15.7555 49.2251 15.6228C49.5514 15.4899 49.8468 15.2918 50.0931 15.0407C50.342 14.8027 50.5401 14.5172 50.6754 14.2012C50.8106 13.8853 50.8804 13.5454 50.8804 13.202C50.8804 12.8585 50.8106 12.5186 50.6754 12.2026C50.5401 11.8867 50.342 11.6012 50.0931 11.3632V11.3878ZM57.8054 22.5916L65.567 34.4452H53.592C51.8589 31.9936 50.512 30.1549 49.551 28.929C48.9105 28.0717 48.2194 27.2531 47.4813 26.4774C47.0501 26.0607 46.7914 25.9258 46.7174 26.0607C46.6358 26.1934 46.5931 26.3463 46.5942 26.502V34.4452H35.5062V0.588401H49.0829C50.7238 0.5903 52.3439 0.954542 53.8261 1.65485C55.3132 2.3256 56.6625 3.26493 57.8054 4.42518C59.0324 5.60508 60.0085 7.0182 60.676 8.58066C61.2989 10.0891 61.6131 11.706 61.6 13.3368C61.5969 15.0183 61.2664 16.6835 60.6267 18.24C59.9777 19.8583 59.0196 21.336 57.8054 22.5916ZM17.0755 13.7413L15.1782 20.9981H18.8742L17.0755 13.7413ZM22.829 34.4452L21.7571 30.5594H12.32L11.2605 34.4452H0L10.9648 0.588401H23.1246L34.0894 34.4452H22.829Z" fill="#141414"/>
</g>
<defs>
<clipPath id="clip0_1_271">
<rect width="154" height="38" fill="white"/>
</clipPath>
</defs>
</svg>
