<svg width="109" height="32" viewBox="0 0 109 32" fill="none" xmlns="http://www.w3.org/2000/svg">
<g id="IMAGE" clip-path="url(#clip0_1_275)">
<path id="Vector" d="M4.8877 31.0405C3.07752 31.0405 1.82207 30.672 1.10189 29.9253C0.287255 28.8811 -0.0988728 27.5674 0.0216294 26.2502V3.82109C-0.0164198 3.30024 0.0576727 2.77729 0.238944 2.28729C0.420216 1.79728 0.704482 1.35152 1.0727 0.979879C1.77638 0.327467 2.7105 -0.0211252 3.67118 0.0101841H11.8754L12.9556 5.82836H6.98011C6.6103 5.82836 6.42537 6.0223 6.42537 6.42958V24.6599C6.42537 25.0672 6.6103 25.2611 6.98011 25.2611H12.9556L11.8364 31.0793L4.8877 31.0405ZM21.0917 27.1617L20.5272 31.0405H14.25L19.8752 0.0101841H26.532L32.1377 31.0405H25.8896L25.3252 27.1617H21.0917ZM21.7729 22.2356H24.6926L23.223 11.2684L21.7729 22.2356ZM46.113 0.0101841C46.6225 -0.0285099 47.1342 0.0433484 47.6131 0.220804C48.092 0.398258 48.5265 0.677088 48.8867 1.03806C49.5285 1.80157 49.8586 2.77776 49.8112 3.77261V18.6284C49.8144 19.1837 49.749 19.7374 49.6166 20.2768C49.4907 20.7645 49.2467 21.214 48.9062 21.5859C48.5246 21.981 48.0543 22.2801 47.5339 22.4587C46.8415 22.6903 46.1134 22.7987 45.3831 22.7787H40.0596V31.0405H33.87V0.0101841H46.113ZM40.0596 5.45018V17.6393H43.1545C43.4075 17.6393 43.5729 17.5908 43.6411 17.4938C43.7286 17.3445 43.766 17.1713 43.7481 16.9993V6.0417C43.7481 5.64412 43.5632 5.45018 43.1934 5.45018H40.0596ZM64.6722 0.0101841L66.2002 5.82836H62.0543V31.0405H55.6992V5.82836H51.5338L53.1591 0.0101841H64.6722ZM71.3387 27.1617L70.784 31.0405H64.5068L70.093 0.0101841H76.7596L82.3847 31.0405H76.1464L75.5917 27.1617H71.3387ZM72.0395 22.3132H74.9591L73.4895 11.2684L72.0395 22.3132ZM84.1268 0.0101841H90.3554V31.0405H84.1268V0.0101841ZM92.9441 0.0101841H98.8708L102.053 12.4611V0.0101841H108.457V31.0405H102.053L98.7053 18.0756V31.0405H92.9441V0.0101841Z" fill="#141414"/>
</g>
<defs>
<clipPath id="clip0_1_275">
<rect width="109" height="32" fill="white"/>
</clipPath>
</defs>
</svg>
