<svg width="148" height="38" viewBox="0 0 148 38" fill="none" xmlns="http://www.w3.org/2000/svg">
<g id="IMAGE" clip-path="url(#clip0_1_279)">
<path id="Vector" d="M34.0519 30.6138C32.0908 32.8582 29.6763 34.6666 26.9658 35.9208C24.2554 37.175 21.3099 37.847 18.321 37.8931C7.31645 37.8931 0 30.875 0 19.3562C0 7.48125 8.97548 0.35625 15.7787 0.35625C17.3 0.276769 18.8186 0.558358 20.209 1.17778C21.5994 1.7972 22.8218 2.7367 23.7755 3.91875L24.969 1.03313H33.121V15.6394H23.871C23.7158 12.2906 22.0568 9.14375 18.3687 9.14375C14.6806 9.14375 12.1981 13.7394 12.1981 19.3562C12.1981 24.4744 14.8477 29.07 19.7771 29.07C24.1335 29.07 27.559 24.5219 28.0245 24.0112L34.0519 30.6138ZM52.9577 0.985625V7.80188H49.7352V15.5919H59.5939V7.80188H56.5384V0.985625H73.4032V7.80188H70.4194V30.2575H73.4032V37.0737H56.5384V30.2575H59.5939V22.4556H49.7352V30.2575H52.9577V37.0737H36.1287V30.2575H38.9932V7.80188H36.1287V0.985625H52.9577ZM75.48 18.7981C75.48 7.695 82.9636 0 93.7055 0C106.429 0 112.349 7.58813 112.349 19.2019C112.349 30.8156 105.796 38 94.0636 38C83.2142 38 75.48 31.7537 75.48 18.8456V18.7981ZM99.351 19.1544C99.351 12.9081 97.6442 7.90875 93.6458 7.90875C90.471 7.90875 88.2987 12.3975 88.2987 18.7981C88.2987 25.5669 90.6858 29.8419 94.0516 29.8419C97.4174 29.8419 99.3629 25.6144 99.3629 19.2019L99.351 19.1544ZM148 30.6138C146.039 32.8582 143.624 34.6666 140.914 35.9208C138.203 37.175 135.258 37.847 132.269 37.8931C121.265 37.8931 113.948 30.875 113.948 19.3562C113.948 7.48125 122.924 0.35625 129.727 0.35625C131.249 0.276769 132.767 0.558358 134.157 1.17778C135.548 1.7972 136.77 2.7367 137.724 3.91875L138.917 1.03313H147.069V15.6394H137.771C137.616 12.2906 135.957 9.14375 132.269 9.14375C128.581 9.14375 126.098 13.7394 126.098 19.3562C126.098 24.4744 128.748 29.07 133.677 29.07C138.034 29.07 141.459 24.5219 141.925 24.0112L148 30.6138Z" fill="#141414"/>
</g>
<defs>
<clipPath id="clip0_1_279">
<rect width="148" height="38" fill="white"/>
</clipPath>
</defs>
</svg>
