<svg width="142" height="38" viewBox="0 0 142 38" fill="none" xmlns="http://www.w3.org/2000/svg">
<g id="IMAGE" clip-path="url(#clip0_1_277)">
<path id="Vector" d="M37.8524 4.83083C38.1865 5.19896 38.282 5.48396 38.1507 5.69771C38.0195 5.91146 37.7331 5.88771 37.3035 5.69771C36.8902 5.47991 36.4341 5.35429 35.967 5.32958C35.5594 5.33739 35.1636 5.19339 34.8573 4.92583C33.9929 4.06966 32.9558 3.40586 31.8144 2.97833C30.6335 2.52519 29.3902 2.25293 28.1272 2.17083C26.8597 2.07599 25.5854 2.13581 24.3326 2.34896C23.1683 2.53505 22.0333 2.87033 20.9556 3.34646C19.6814 3.93934 18.4802 4.67651 17.3758 5.54333C15.977 6.58615 14.6532 7.72497 13.4141 8.95146C12.0356 10.2768 10.7443 11.6888 9.54785 13.179C8.33668 14.7064 7.23609 16.3176 6.25441 18.0002C5.30141 19.5834 4.50228 21.2535 3.86785 22.9877C3.30417 24.5524 2.99011 26.1952 2.9371 27.8565C2.91249 28.258 3.02614 28.6559 3.25928 28.9846C3.47825 29.26 3.76639 29.473 4.09458 29.6021C4.45529 29.7318 4.83325 29.8078 5.21626 29.8277C5.57797 29.8461 5.94042 29.8461 6.30214 29.8277C7.5247 29.7019 8.72703 29.4267 9.88197 29.0084C11.0881 28.5849 12.2641 28.0811 13.4022 27.5002C14.5636 26.9065 15.6614 26.2771 16.6956 25.6121C17.7457 24.959 18.7003 24.3177 19.5595 23.7002C20.4186 23.0827 21.1823 22.5127 21.8386 22.0496C22.4949 21.5865 22.9723 21.2184 23.3064 21.0046C23.8048 20.6437 24.3618 20.3706 24.9531 20.1971C25.3777 20.1439 25.7852 19.998 26.1464 19.7696L27.6738 18.7959C28.0318 18.594 28.2465 18.5346 28.3062 18.6177C28.3659 18.7009 28.3062 18.8909 27.996 19.164C26.7191 20.5177 25.3827 21.8121 23.9865 23.0234C22.5904 24.2346 21.1704 25.3984 19.7265 26.5859C18.8479 27.2713 17.9359 27.9134 16.9939 28.5096C15.9085 29.2117 14.7851 29.854 13.6289 30.4334C12.4686 31.0069 11.2729 31.5066 10.049 31.9296C8.96441 32.3146 7.82348 32.5192 6.67206 32.5352C5.61463 32.5727 4.56125 32.3865 3.58147 31.989C2.77363 31.6501 2.06393 31.1152 1.5171 30.4334C0.975628 29.7701 0.570209 29.0075 0.32382 28.189C0.0936062 27.3416 -0.0148657 26.466 0.00163492 25.5884C0.0585369 23.8338 0.405244 22.1007 1.02785 20.4584C1.69616 18.5998 2.55173 16.8135 3.58147 15.1265C4.67262 13.3306 5.90981 11.6268 7.28063 10.0321C8.63501 8.4555 10.1069 6.98278 11.6838 5.62646C13.101 4.41009 14.6267 3.32498 16.2422 2.38458C17.5876 1.55209 19.052 0.927489 20.5857 0.532078C22.0589 0.227048 23.5562 0.0522008 25.0605 0.00957849C28.1791 -0.0902574 31.2731 0.59168 34.0578 1.99271C35.4772 2.71465 36.7608 3.67475 37.8524 4.83083ZM24.3207 22.7027C24.0842 22.9141 23.833 23.1086 23.5689 23.2846C23.4615 23.2846 23.4138 23.2846 23.4257 23.2252C23.4694 23.0634 23.5336 22.9078 23.6166 22.7621C23.7099 22.5968 23.7936 22.4263 23.8672 22.2515C24.0904 21.7043 24.2544 21.135 24.3565 20.5534C24.3961 20.1154 24.5711 19.7005 24.8576 19.3659L25.7287 18.3446C26.1225 17.8815 26.5879 17.3709 27.1368 16.8246C27.7202 16.2506 28.3335 15.7075 28.9744 15.1977C29.6317 14.678 30.3392 14.2246 31.0865 13.844C31.232 13.7672 31.392 13.7212 31.5563 13.7089C31.7207 13.6966 31.8857 13.7184 32.0412 13.7727C32.3854 13.8726 32.7088 14.0335 32.9958 14.2477C33.2563 14.4412 33.472 14.6883 33.6282 14.9721C33.6945 15.0727 33.7297 15.1903 33.7297 15.3106C33.7297 15.4307 33.6945 15.5484 33.6282 15.649C33.2254 16.3985 32.7791 17.1241 32.2918 17.8221C31.6951 18.6534 31.0985 19.5321 30.5138 20.4702C29.9291 21.4084 29.3921 22.3584 28.9028 23.3202C28.4654 24.1678 28.1328 25.0649 27.9124 25.9921C28.7431 25.5196 29.5193 24.9582 30.2274 24.3177C31.0388 23.5934 31.8383 22.7977 32.6139 21.9427C33.3896 21.0877 34.1771 20.209 35.0005 19.3184L37.1126 16.8484C37.1965 16.7244 37.3192 16.6315 37.4616 16.5843C37.6041 16.537 37.7583 16.538 37.9002 16.5871C38.2297 16.68 38.5297 16.8559 38.7713 17.0977C39.0249 17.3612 39.2165 17.6776 39.3321 18.024C39.3977 18.1737 39.4317 18.3355 39.4317 18.499C39.4317 18.6624 39.3977 18.8241 39.3321 18.974C38.6192 20.3267 38.0552 21.752 37.6496 23.2252C38.666 22.632 39.6426 21.9735 40.5731 21.254C41.5158 20.5296 42.2556 19.9715 42.8045 19.5796C42.9706 19.4654 43.1512 19.3736 43.3415 19.3065L43.9381 19.1284C44.1866 19.0537 44.4298 18.9625 44.666 18.8552C44.9444 18.7365 45.2786 18.5702 45.6684 18.3565C46.1815 18.0834 46.456 18.0002 46.4798 18.0834C46.5037 18.1665 46.3486 18.404 45.9786 18.7602C45.3104 19.4252 44.6064 20.1377 43.8427 20.8859C43.079 21.634 42.3153 22.3702 41.5277 23.0827C40.7402 23.7952 39.9645 24.4602 39.1412 25.0777C38.4756 25.6342 37.756 26.1235 36.9933 26.5384C36.8849 26.6036 36.7633 26.6438 36.6374 26.6562C36.5114 26.6685 36.3843 26.6526 36.2654 26.6096C35.9854 26.5331 35.7196 26.413 35.4778 26.2534C35.2279 26.0967 35.0094 25.8955 34.8334 25.6596C34.6811 25.4746 34.5931 25.2454 34.5828 25.0065C34.5351 24.5243 34.5431 24.0381 34.6067 23.5577C33.8191 24.3771 32.9958 25.149 32.1366 25.9327C31.2307 26.6968 30.2651 27.3877 29.2489 27.999C28.915 28.1582 28.5426 28.22 28.1749 28.1771C27.6962 28.1427 27.2234 28.051 26.7669 27.904C26.3338 27.7573 25.9299 27.5362 25.5736 27.2509C25.4092 27.1151 25.2777 26.9443 25.1889 26.7511C25.1 26.5577 25.0561 26.3471 25.0605 26.1346C25.0307 25.6158 25.0995 25.0961 25.2634 24.6027C25.4429 24.0256 25.6542 23.4587 25.8958 22.9046C26.1583 22.3109 26.4447 21.7171 26.7669 21.159L27.6499 19.5321C27.0771 20.0784 26.5163 20.6127 25.9674 21.159C25.4185 21.7052 24.8338 22.2515 24.3207 22.7027ZM47.3986 18.1309C46.6469 19.0096 45.9428 19.7696 45.3462 20.4346C44.9657 20.9188 44.4514 21.2819 43.8665 21.4796C43.6162 21.4953 43.3651 21.4953 43.1148 21.4796C42.8353 21.4953 42.5643 21.581 42.3272 21.729C41.9654 21.9014 41.6283 22.1211 41.3249 22.3821C41.0368 22.626 40.734 22.8521 40.418 23.059C40.2032 23.2015 40.1674 23.1421 40.2986 22.9046C40.4299 22.6671 40.9192 22.0259 41.7306 21.0046C43.0432 19.3737 44.3081 17.7904 45.5252 16.2546C46.658 14.8189 47.7134 13.3246 48.6874 11.7777C48.7597 11.6842 48.859 11.6148 48.972 11.5787C49.085 11.5427 49.2062 11.5417 49.3198 11.5758C49.6002 11.6386 49.8697 11.7426 50.1193 11.8846C50.4151 12.0236 50.6792 12.2216 50.895 12.4665C51.1097 12.7159 51.2052 12.9177 51.1694 13.0959C51.0143 13.5827 50.883 14.0577 50.7637 14.5209C50.6444 14.984 50.537 15.4709 50.4415 15.9459C51.3614 15.3097 52.4213 14.9025 53.5321 14.7584C54.1199 14.7014 54.7119 14.8126 55.2385 15.079C55.7892 15.3408 56.2962 15.6852 56.742 16.1002C57.152 16.4723 57.5021 16.9048 57.7802 17.3827C58.0045 17.7167 58.1248 18.1091 58.1262 18.5109C58.0779 19.476 57.7274 20.402 57.1239 21.159C56.5112 21.9324 55.7732 22.5986 54.9402 23.1302C55.9055 22.8203 56.8402 22.4228 57.7324 21.9427C58.4842 21.5152 59.1166 21.1352 59.6417 20.7552C60.1667 20.3752 60.6202 20.1021 60.9901 19.8527C61.3095 19.6118 61.6815 19.449 62.076 19.3777C62.2267 19.3634 62.3786 19.3634 62.5294 19.3777C62.662 19.3731 62.792 19.3408 62.9113 19.2827C63.0836 19.2015 63.2441 19.0977 63.3886 18.974L64.1642 18.3327C64.379 18.1309 64.5102 18.0596 64.5699 18.1309C64.6296 18.2021 64.6296 18.2734 64.5699 18.3327C63.885 19.4237 63.0849 20.4389 62.1834 21.3609C61.2337 22.356 60.1908 23.2586 59.0689 24.0565C57.9644 24.8419 56.7854 25.5181 55.5487 26.0752C54.387 26.5925 53.1507 26.9251 51.8854 27.0609C51.6081 27.0841 51.3288 27.056 51.062 26.9777C50.6571 26.8789 50.2587 26.756 49.8687 26.6096C49.4954 26.4725 49.1389 26.2931 48.8067 26.0752C48.5404 25.9156 48.3156 25.696 48.1504 25.434L47.9595 25.9327C47.6015 26.9302 47.2316 27.9515 46.8736 28.9846C46.5156 30.0177 46.1099 31.0627 45.6803 32.1077C45.2505 33.1348 44.7645 34.1378 44.2245 35.1121C43.7066 36.0637 43.0908 36.9592 42.3869 37.784C42.3038 37.8706 42.2 37.9346 42.0851 37.97C41.9702 38.0053 41.8481 38.0108 41.7306 37.9859C41.4361 37.924 41.1712 37.765 40.9788 37.5346C40.7178 37.238 40.5226 36.89 40.406 36.5134C40.2706 36.0429 40.2341 35.5497 40.2986 35.0646C40.6208 32.6403 41.3086 30.2783 42.3391 28.0584C43.4466 25.6037 44.6773 23.2058 46.0264 20.874C46.1696 20.6009 46.3366 20.3277 46.5037 20.0546C46.6607 19.7884 46.8321 19.5307 47.0168 19.2827L47.3986 18.1309ZM55.4413 17.0027C54.1649 17.0371 52.939 17.5066 51.9689 18.3327C50.9824 19.166 50.1187 20.1335 49.4034 21.2065C49.2522 21.8081 49.109 22.39 48.9738 22.9521C48.8306 23.5102 48.6755 24.1396 48.4965 24.6859L48.759 24.5552C49.4906 24.2321 50.1864 23.8341 50.8353 23.3677C51.6178 22.8431 52.3525 22.251 53.0309 21.5984C53.7205 20.9555 54.3115 20.2153 54.785 19.4015C55.2281 18.6801 55.4558 17.8481 55.4413 17.0027ZM64.4386 24.8284C65.5404 24.7897 66.6286 24.5731 67.6605 24.1871C68.7255 23.7946 69.7521 23.3058 70.7272 22.7265C71.7083 22.1403 72.6491 21.4897 73.5434 20.779C74.4383 20.0665 75.2497 19.4015 75.9299 18.7602C76.0003 18.6863 76.0855 18.6281 76.1801 18.5891C76.2748 18.5503 76.3764 18.5317 76.4788 18.5346C76.622 18.5346 76.5981 18.7484 76.3834 19.0809C76.0442 19.6421 75.7908 20.2504 75.6316 20.8859C75.5824 21.28 75.4347 21.6556 75.202 21.9784C74.8946 22.3474 74.568 22.7003 74.2235 23.0352C73.7849 23.4658 73.3142 23.8628 72.8155 24.2227C72.2904 24.6265 71.7296 25.0184 71.1568 25.4102C70.6142 25.7623 70.0338 26.053 69.4265 26.2771C68.899 26.4981 68.3516 26.6691 67.7918 26.7877C67.1968 26.9298 66.5893 27.0133 65.978 27.0371C65.5016 27.0179 65.0327 26.9133 64.5938 26.7284C64.0539 26.5115 63.5476 26.2196 63.0902 25.8615C62.6499 25.5102 62.2498 25.1121 61.897 24.674C61.5915 24.3451 61.3957 23.9304 61.3361 23.4865C61.1786 22.08 61.2716 20.657 61.6106 19.2827C61.9267 18.0317 62.4209 16.8321 63.0783 15.7202C63.7001 14.6627 64.5086 13.7252 65.4649 12.9534C66.4016 12.1886 67.4685 11.5974 68.6151 11.2077C69.0299 11.0726 69.4771 11.0726 69.8919 11.2077C70.38 11.3642 70.8454 11.5838 71.2761 11.8608C71.6818 12.1241 72.0476 12.444 72.362 12.8109C72.6115 13.0778 72.7629 13.421 72.7916 13.7846C72.7838 14.1993 72.6775 14.6062 72.4813 14.9721C72.2453 15.4519 71.9782 15.9161 71.6818 16.3615C71.3716 16.8365 71.0136 17.3352 70.6437 17.8459L69.5697 19.2946C69.2356 19.7221 68.997 19.8646 68.8418 19.7459C68.6867 19.6271 68.7106 19.3065 68.8418 18.7959C68.9612 18.4634 69.0447 18.2021 69.0924 18.0121C69.1356 17.8411 69.1597 17.6658 69.164 17.4896C69.1666 17.3439 69.1424 17.199 69.0924 17.0621C69.0428 16.9063 69.0029 16.7477 68.9731 16.5871C68.9511 16.3551 68.9755 16.121 69.0447 15.8984C69.1294 15.6395 69.2291 15.3857 69.343 15.1384C69.4623 14.8652 69.5817 14.5802 69.701 14.2715C69.8245 13.9649 69.9165 13.6465 69.9755 13.3215C69.0571 13.6935 68.2396 14.2752 67.5889 15.0196C66.8034 15.8851 66.1446 16.8566 65.6319 17.9052C65.0748 19.0046 64.6732 20.1755 64.4386 21.3846C64.1913 22.5193 64.1913 23.6936 64.4386 24.8284ZM77.8034 16.5159C78.5753 15.7575 79.4008 15.0551 80.2734 14.414C80.859 13.9762 81.5233 13.6538 82.2304 13.464C82.7823 13.3202 83.3668 13.3661 83.8891 13.5946C84.4913 13.8827 85.0307 14.2862 85.4761 14.7821L86.1682 13.749C86.2539 13.6409 86.3706 13.5616 86.5027 13.5212C86.6349 13.481 86.7763 13.4817 86.9081 13.5234C87.2688 13.5798 87.6117 13.718 87.9104 13.9271C88.2078 14.1172 88.4569 14.3733 88.6383 14.6752C88.7224 14.7819 88.7683 14.9136 88.7683 15.0493C88.7683 15.1849 88.7224 15.3166 88.6383 15.4234C88.3375 15.8393 88.0663 16.2759 87.8269 16.7296C87.4331 17.4184 87.0155 18.214 86.6336 19.1046C86.2518 19.9952 85.7983 20.874 85.4403 21.7527C85.1281 22.4346 84.8881 23.147 84.7244 23.8784C84.7041 23.9522 84.7041 24.0301 84.7244 24.104V24.3771C85.344 24.0229 85.9382 23.6261 86.5023 23.1896C87.1587 22.7146 87.8149 22.2277 88.4474 21.729L90.2492 20.304L91.538 19.259C91.7359 19.1059 91.9524 18.9783 92.1824 18.879C92.3572 18.8013 92.5365 18.7339 92.7193 18.6771L93.316 18.4634C93.5733 18.3671 93.8179 18.2394 94.0439 18.0834C94.2229 17.9646 94.3541 17.929 94.4257 17.9765C94.4973 18.024 94.4257 18.1427 94.3183 18.3565C93.125 19.924 91.9318 21.444 90.5476 22.9284C90.1776 23.3202 89.7719 23.7715 89.3543 24.2821C88.8998 24.788 88.4049 25.2566 87.8746 25.6834C87.3726 26.087 86.8138 26.4151 86.216 26.6571C85.6488 26.8823 85.0214 26.9073 84.438 26.7284C83.6022 26.611 82.8405 26.1876 82.302 25.5409C81.9703 24.9471 81.8887 24.2467 82.0753 23.5934C81.5115 24.4151 80.9061 25.2078 80.2615 25.9684C79.7677 26.5913 79.1704 27.1255 78.4955 27.5477C76.4311 28.7352 74.9156 28.3434 73.8536 26.2415C73.6176 25.7228 73.4956 25.1602 73.4956 24.5909C73.4769 23.8097 73.6065 23.0322 73.8775 22.299C74.2014 21.352 74.6381 20.447 75.1781 19.6034C75.927 18.4706 76.8083 17.4302 77.8034 16.504V16.5159ZM78.4358 23.9377C79.6131 22.6631 80.7428 21.3212 81.8247 19.9121C82.8987 18.4871 83.9249 17.0621 84.8914 15.6134C84.3776 15.5805 83.867 15.7137 83.4356 15.9934C82.8391 16.3482 82.2688 16.7451 81.7292 17.1809C81.1684 17.6202 80.6553 18.0477 80.1899 18.4752C79.8571 18.7522 79.5459 19.0538 79.2592 19.3777C78.8852 19.8052 78.4875 20.3396 78.0659 20.9809C77.6005 21.634 77.159 22.299 76.7533 22.9996C76.3726 23.6202 76.0453 24.2717 75.7748 24.9471C75.5429 25.3588 75.4789 25.8434 75.5958 26.3009C75.7748 26.574 76.0612 26.5027 76.4788 26.099L78.4358 23.9377ZM112.564 19.4609C112.723 19.3739 112.891 19.3023 113.065 19.2471L113.542 19.1165L114.127 18.9146C114.353 18.8196 114.64 18.689 114.974 18.5109C115.308 18.3327 115.594 18.1784 115.654 18.2615C115.714 18.3446 115.654 18.5346 115.284 18.8671C114.676 19.6152 113.96 20.4346 113.112 21.3134C112.265 22.1921 111.382 22.9877 110.475 23.7596C109.627 24.484 108.729 25.1505 107.79 25.7546C107.095 26.2359 106.307 26.5676 105.475 26.7284C104.507 26.8787 103.516 26.7595 102.612 26.384C101.846 26.1277 101.19 25.6214 100.75 24.9471C100.436 24.382 100.261 23.7515 100.237 23.1065C100.177 22.3991 100.177 21.6881 100.237 20.9809C100.269 20.6921 100.384 20.4185 100.568 20.1931C100.752 19.9677 100.997 19.8 101.275 19.7102C101.737 19.5002 102.187 19.2664 102.624 19.0096C103.135 18.7029 103.621 18.3574 104.079 17.9765C104.537 17.5676 104.956 17.1185 105.332 16.6346C105.722 16.2179 106.019 15.7243 106.203 15.1859C105.222 15.4895 104.31 15.9817 103.518 16.6346C102.697 17.262 101.924 17.9486 101.204 18.689C100.46 19.4448 99.7549 20.2375 99.0914 21.064C98.3755 21.9546 97.7192 22.7977 97.1106 23.6171C96.502 24.4365 95.9889 25.149 95.5713 25.7902C95.1536 26.4315 94.8672 26.8234 94.7479 26.9777C94.6493 27.1471 94.5152 27.2931 94.3545 27.4058C94.1937 27.5187 94.0104 27.5954 93.8171 27.6309C93.4446 27.6942 93.0626 27.676 92.6978 27.5775C92.3332 27.4792 91.9943 27.3028 91.705 27.0609C91.5984 26.9883 91.5215 26.8799 91.4887 26.7556C91.4558 26.6312 91.469 26.4993 91.526 26.384L95.798 18.7009C94.9768 19.4844 94.1122 20.2218 93.2086 20.9096C92.2962 21.604 91.3397 22.2386 90.3447 22.8096C89.9748 23.0471 89.6168 23.2727 89.2469 23.4627C88.877 23.6527 88.6025 23.8071 88.4116 23.9021C88.2207 23.9971 88.1133 23.9971 88.1133 23.9021C88.1133 23.8071 88.2803 23.629 88.6144 23.2965C89.2143 22.7138 89.7688 22.0865 90.2731 21.4202C90.6042 20.9841 90.8732 20.5046 91.0726 19.9952C91.2947 19.4096 91.6796 18.8989 92.1824 18.5227L94.5689 16.3734C95.4758 15.5302 96.4543 14.5565 97.5044 13.464C98.598 12.2892 99.5919 11.0261 100.476 9.68771C101.048 8.50021 101.669 7.31271 102.134 6.04208C102.6 4.77146 103.125 3.57208 103.614 2.38458C103.697 2.17083 103.876 2.09958 104.151 2.15896C104.471 2.23979 104.763 2.40371 104.998 2.63396C105.298 2.90244 105.556 3.21475 105.762 3.56021C106.005 3.90584 106.111 4.32879 106.06 4.74771C106.03 5.24221 105.929 5.72997 105.762 6.19646C105.606 6.67119 105.411 7.13198 105.177 7.57396C104.98 7.99064 104.744 8.38818 104.473 8.76146C104.234 9.08208 104.032 9.33146 103.876 9.50958C103.614 10.1152 103.375 10.6971 103.172 11.0771C102.97 11.4571 102.779 11.9202 102.564 12.2646C102.349 12.609 102.134 13.0721 101.931 13.4521C101.729 13.8321 101.454 14.3784 101.156 14.9484C101.888 14.495 102.654 14.098 103.447 13.7609C104.279 13.441 105.17 13.3032 106.06 13.3571C106.388 13.3746 106.706 13.4682 106.991 13.6302C107.373 13.8119 107.727 14.048 108.041 14.3309C108.355 14.6122 108.617 14.9458 108.817 15.3165C109.007 15.6561 109.062 16.0544 108.972 16.4327C108.79 17.0574 108.513 17.6503 108.148 18.1902C107.752 18.8058 107.288 19.3754 106.764 19.8884C106.227 20.387 105.639 20.8288 105.01 21.2065C104.426 21.6019 103.802 21.9362 103.149 22.204C103.084 22.6777 103.194 23.1589 103.459 23.5577C103.733 24.009 103.948 24.3771 104.103 24.6502C104.9 24.4814 105.662 24.1804 106.358 23.7596C107.194 23.2727 108.005 22.7265 108.817 22.1565C109.628 21.5865 110.344 21.0402 111.012 20.5296C111.494 20.1218 112.014 19.76 112.564 19.449V19.4609ZM120.152 18.4634C119.79 18.9842 119.39 19.4802 118.959 19.9477C118.468 20.4578 117.946 20.9375 117.396 21.3846C116.878 21.8211 116.328 22.2181 115.75 22.5721C115.288 22.8812 114.78 23.1177 114.246 23.2727C114.246 23.6064 114.27 23.9398 114.318 24.2702C114.349 24.5633 114.451 24.8446 114.616 25.0896C114.702 25.2643 114.839 25.4089 115.01 25.5043C115.18 25.5998 115.376 25.6415 115.571 25.624C115.988 25.5848 116.394 25.4637 116.764 25.2677C117.53 24.8788 118.264 24.4302 118.959 23.9259C119.725 23.387 120.463 22.8083 121.167 22.1921C121.894 21.5509 122.599 20.8977 123.279 20.2209C123.959 19.544 124.591 18.9027 125.164 18.2971C125.403 18.0596 125.582 17.9765 125.689 18.0477C125.796 18.119 125.785 18.2734 125.689 18.4871C125.403 19.1176 125.151 19.7638 124.937 20.4227C124.77 20.969 124.627 21.4202 124.508 21.7884C124.384 22.1485 124.207 22.4886 123.983 22.7977C123.653 23.2964 123.291 23.7724 122.897 24.2227C122.425 24.7722 121.915 25.288 121.369 25.7665C120.8 26.2737 120.167 26.7049 119.484 27.049C118.806 27.3961 118.071 27.6175 117.313 27.7021C116.504 27.7985 115.683 27.6924 114.926 27.3934C113.926 27.0676 113.078 26.3928 112.54 25.4934C112.064 24.6512 111.805 23.7045 111.788 22.7384C111.76 21.6987 111.914 20.6621 112.241 19.6746C112.54 18.6942 112.94 17.7471 113.435 16.8484C113.688 16.3923 113.975 15.9556 114.294 15.5421C114.662 15.0507 115.06 14.5827 115.487 14.1409C115.889 13.708 116.328 13.3107 116.8 12.9534C117.179 12.6585 117.626 12.4626 118.1 12.3834C118.654 12.3775 119.2 12.5124 119.687 12.7752C120.199 12.9958 120.674 13.292 121.095 13.654C121.409 13.9718 121.588 14.3965 121.596 14.8415C121.628 15.2749 121.559 15.7099 121.393 16.1121C121.217 16.5247 121.005 16.9219 120.761 17.2996L120.152 18.4634ZM115.153 20.0309C115.888 19.3196 116.562 18.549 117.17 17.7271C117.798 16.8924 118.312 15.9779 118.697 15.0077C118.38 15.2245 118.095 15.4843 117.85 15.7796C117.564 16.1097 117.3 16.4589 117.062 16.8246C116.812 17.1809 116.585 17.5371 116.382 17.8815C116.179 18.2259 116 18.5109 115.881 18.7246L115.153 20.0309ZM140.366 18.8434C140.856 18.4871 141.13 18.3327 141.19 18.4159C141.249 18.499 141.082 18.7484 140.689 19.1996C139.961 20.0784 139.209 20.9571 138.421 21.824C137.634 22.6909 136.846 23.5221 136.035 24.294C135.282 25.0257 134.485 25.7118 133.648 26.3484C132.922 26.909 132.117 27.3647 131.262 27.7021C131.023 28.338 130.599 28.8889 130.045 29.2843C129.49 29.6798 128.83 29.9021 128.147 29.9227C127.454 29.9453 126.763 29.8241 126.119 29.5665C125.423 29.3016 124.789 28.8975 124.257 28.379C124.088 28.1961 123.936 27.9972 123.804 27.7852C123.655 27.5506 123.541 27.2942 123.47 27.0252C123.388 26.7765 123.365 26.5127 123.398 26.2534C123.419 26.1246 123.466 26.0015 123.535 25.8913C123.604 25.781 123.696 25.6861 123.804 25.6121C123.966 25.4813 124.169 25.4099 124.376 25.4102C124.627 25.4102 124.902 25.4102 125.188 25.4102C125.474 25.4102 125.749 25.4102 126.011 25.5052L126.62 25.6121C127.049 25.6121 127.443 25.6121 127.813 25.6121C128.185 25.6148 128.557 25.5871 128.923 25.529C129.018 25.076 129.067 24.6143 129.066 24.1515V22.8809C129.066 22.0615 129.066 21.2421 129.066 20.4109C129.066 19.5796 128.947 18.7484 128.863 17.9052C127.768 19.0835 126.609 20.2013 125.391 21.254C124.126 22.3346 123.004 23.2727 122.002 24.0565C121.572 24.389 121.381 24.4365 121.405 24.2109C121.477 23.9047 121.62 23.6199 121.823 23.3796C122.032 23.1054 122.212 22.8109 122.36 22.5009C122.51 22.1959 122.641 21.8828 122.754 21.5627L123.04 20.7552C123.113 20.5439 123.24 20.3555 123.41 20.209C123.804 19.8171 124.46 19.0215 125.391 18.0002C126.505 16.6227 127.5 15.1527 128.362 13.6065C128.418 13.5053 128.505 13.4243 128.61 13.3753C128.715 13.3261 128.833 13.3115 128.947 13.3334C129.239 13.3733 129.521 13.4744 129.77 13.6302C130.045 13.7977 130.296 13.9969 130.522 14.224C130.701 14.3693 130.833 14.5631 130.904 14.7821C131.178 16.3852 131.429 18.0359 131.655 19.7577C131.88 21.4387 131.919 23.1388 131.775 24.8284C132.417 24.5035 133.017 24.1048 133.565 23.6409C134.185 23.1421 134.758 22.6315 135.379 22.1209C135.999 21.6102 136.572 21.1234 137.085 20.6721C137.544 20.2801 138.049 19.9451 138.588 19.6746C138.923 19.5321 139.221 19.4134 139.495 19.3184C139.81 19.2136 140.105 19.057 140.366 18.8552V18.8434Z" fill="#141414"/>
</g>
<defs>
<clipPath id="clip0_1_277">
<rect width="142" height="38" fill="white"/>
</clipPath>
</defs>
</svg>
