<svg width="131" height="34" viewBox="0 0 131 34" fill="none" xmlns="http://www.w3.org/2000/svg">
<g id="IMAGE" clip-path="url(#clip0_1_289)">
<g id="Layer 2">
<g id="Layer 1">
<path id="Vector" d="M31.2853 30.3572H25.4722L24.6777 34.0001H18.1732L24.4078 9.71436H32.4468L38.6814 34.0001H32.0404L31.2853 30.3572ZM30.2634 25.6792L28.4137 16.9394L26.485 25.6792H30.2634Z" fill="white"/>
<path id="Vector_2" d="M57.3125 9.71436V34.0001H51.651L46.2472 21.2501V34.0001H40.2006V9.71436H45.8682L51.2719 22.689V9.71436H57.3125Z" fill="white"/>
<path id="Vector_3" d="M74.9642 14.444H70.2791V34.0001H63.6806V14.444H59.0167V9.71436H74.9642V14.444Z" fill="white"/>
<path id="Vector_4" d="M88.2643 30.3572H82.4451L81.6506 34.0001H75.1521L81.3868 9.71436H89.4348L95.6694 34.0001H89.0193L88.2643 30.3572ZM87.2454 25.667L85.3926 16.9394L83.467 25.6792L87.2454 25.667Z" fill="white"/>
<path id="Vector_5" d="M106.856 18.0352V14.8963C106.856 14.3286 106.553 14.0645 105.91 14.0645H104.551C103.908 14.0645 103.605 14.3286 103.605 14.8963V28.8181C103.605 29.3858 103.908 29.6499 104.551 29.6499H105.91C106.553 29.6499 106.856 29.3858 106.856 28.8181V24.7715H104.967V20.5701H113.458V29.3099C113.458 32.1452 111.941 34.0001 107.905 34.0001H102.538C98.4956 34.0001 96.9825 32.1452 96.9825 29.3099V14.4045C96.9825 11.5692 98.4987 9.71436 102.538 9.71436H107.905C111.947 9.71436 113.458 11.5692 113.458 14.4045V18.0474L106.856 18.0352Z" fill="white"/>
<path id="Vector_6" d="M131 29.2704V34.0001H116.111V9.71436H130.666V14.444H122.725V19.3983H129.563V24.1279H122.725V29.2704H131Z" fill="white"/>
<path id="Vector_7" d="M12.7361 0L8.0844 25.9432L6.6713 17.6071H0L4.2666 34H11.9386L18.8009 6.07143H131L12.7361 0Z" fill="white"/>
</g>
</g>
</g>
<defs>
<clipPath id="clip0_1_289">
<rect width="131" height="34" fill="white"/>
</clipPath>
</defs>
</svg>
